<?xml version="1.0" encoding="utf-8"?>
<!-- Generator: Adobe Illustrator 22.1.0, SVG Export Plug-In . SVG Version: 6.00 Build 0)  -->
<svg version="1.1" id="Layer_1" xmlns="http://www.w3.org/2000/svg" xmlns:xlink="http://www.w3.org/1999/xlink" x="0px" y="0px"
	 viewBox="0 0 197.9 268.5" style="enable-background:new 0 0 197.9 268.5;" xml:space="preserve">
<style type="text/css">
	.st0{fill:#FFFFFF;}
</style>
<path class="st0" d="M61.1,36.6h-0.2l-0.2,0.2l-0.1,0.1l-0.1,0.3l0,0.2l0.1,0.2l0.2,0.3l0.3,0.1l0.1-0.2l0-0.2l0.1-0.2l0-0.1
	l-0.1-0.1l-0.1-0.2l0-0.2l0-0.2L61.1,36.6z M22.1,53.2l0.3,0.1l0.6-0.7L23,52.5l-0.5-0.2l-0.4,0L22,52.4l-0.1,0l0,0.1l0,0.4
	L22.1,53.2z M119.9,40.7l0.3,0l0.3-0.3l-0.1-0.5l0.1-0.3h0.2l0.1,0.4l-0.2,0.6l0,0.3l0.3,0l0.2-0.3l0.6-1.9l-0.6-0.3l-0.9,0.3
	l-0.8,0.7l-0.3,0.8l0.3,0.3L119.9,40.7z M122.8,37.5l0.3-0.6l1-0.9l0.4-0.5l-0.3,0.3l-1.5,0.7l-0.1,0.3l0,0.1l0.1,0.7H122.8z
	 M59.7,19.7L59.4,20l-0.1,0.6l0.2,0.5l0.3,0.2l0.5,0l0.6-0.4l0.5-0.8l0.2-0.9l0-0.4l-1.4,0.6l-0.2,0.1L59.7,19.7z M31.2,50.1l1-0.4
	h0.1l0,0l0-0.2l-2.4-0.1l-1.2,0.2l-1,0.6l0.9,0.2L31.2,50.1z M49.3,49.8l0.1,0.1l0.2,0.1l0.1-0.1l0.3-0.3l0.2-0.1h0.3l-0.5-0.3
	l-0.5-0.1l-0.4,0.2L49,49.7V50l0.2-0.2L49.3,49.8z M43.7,47.3l0.4,0l0.9,0.2l0.2,0l0.2,0l-0.6-0.4L44.5,47l-0.4,0L43.7,47l-0.4,0.1
	l-0.1,0.2l0.4,0.3L43.7,47.3z M25.8,50.7l-2.9,0.4l-0.8,0.4l4.6-0.5L25.8,50.7z M33.9,49.7l0.2-0.1l0.1-0.1l0.1-0.1l-0.3-0.2
	l-0.4-0.1l-0.4,0.1l-0.4,0.2l0.3,0L33.9,49.7z M35.2,49.5l0.6,0l0.1-0.6l0.7-0.2l1.6,0l0.1,0l0.1,0l0,0l0-0.2l-0.4-0.3l-1.9,0
	l-0.7,0L35,48.4l-0.1,0.4l0.1,0.5L35.2,49.5z M39.4,48.4l0.2-0.1l0.2-0.3l0.5,0.4l0.6,0l0.6-0.3l0.5-0.3h0.3v-0.3l-1.8-0.1l-0.9,0.2
	l-0.5,0.7l0.2,0.2H39.4z M54,13.4L54,13.4l0.1,0l0,0l0-0.2l-0.5,0.2l-0.4,0.4l-0.6,1.2l0.4,0.6l0.4,0.7l0.5,0.5l0.7-0.3l0.3-0.3
	l-0.4-0.2l-1.1-2l0.2-0.3L54,13.4z M63.9,21.8l0.2,0.4l0.4,0.2l0.9-0.1L66,22l0.3-0.4l0.3-0.5l0.4-0.4l0-0.2l0-0.2l0-0.1l0.1,0
	L66.2,20l-0.8,0l-0.8,0.4L63.9,21l0.2,0.2l0.1,0.2l0,0.2L63.9,21.8z M157.7,17.9L157.7,17.9L157.7,17.9L157.7,17.9z M155.8,21.5
	l0-0.4l0.1-0.4l0.1-0.3l0.3-0.3l0.2-0.2l0.2-0.8l0-0.7l0.1-0.6l0.5-0.4v0.8h0.1v-0.5l0.1,0l0.1,0.1l0,0v-0.4l-0.1-0.2l-0.2,0l-0.3,0
	l-0.3,0.1l-0.2,0.3l-0.2,0.9l-0.7,2.4l-0.1,0.9v0.5h0.2L155.8,21.5z M170.6,33.9l0.3,0.4l0.9,0.9l0.2,0.6l-0.1,1l-0.6,1.2l-0.2,0.7
	l0.4,0.2l0.3-0.3l0.3-0.4l0.7-0.3l0.2-0.1l0.2,0.1l0.1,0.4l-0.1,0.2l-0.2,0.2l-0.2,0.3l0,0.5l0.8-0.3l0.1-0.1l0.1-0.3l0.2-0.3
	l0.2-0.2l0.2-0.1v-0.3l-0.2-0.5l0.2-0.3l0.4-0.1l0.4,0.1l0.3,0.3l0.3,0.4l0.2,0.5l0.2,0.6l0.5-0.2l0.3,0.6l0,1l-0.3,0.9l0.2,0.5
	l-0.7-0.2l0-0.2l0.1-0.1l0.1-0.1l0.1-0.1l-0.9,0l-0.3,0.2l-0.3,0.6l0-0.6l0.2-0.7l-0.1-0.2l0.1-0.3l-0.4-0.2l-1.1-0.1l-0.1,0.9
	l0.8,1.5l-0.2,1.1l-0.2,0.2l-0.8,0.4l-0.7,0.1l-0.4,0.3l-0.3,0.1l0.4,0.5l0.8,0.2l1.4,0l1.2-0.3l0.6-0.4l0.5-0.6l0.4,0.3l0.5,0.1
	l2.4-0.3l-0.2-0.6l-0.4-0.5l0.2-0.1l0.2-0.1l0.4-1l-0.4-0.3l-3.8-4.2l-0.7-0.4l-0.8-0.3l-1.4-0.8l-0.6-0.6l-0.3-0.5l-0.4-1.2
	l-0.2-0.4l-0.4-0.2l-0.4,0.2l-0.3,0.4L170.6,33.9z M17.8,55l0.4,0.2l0.1,0l0.3-0.2l0.2,0l0.2,0.1l0.3,0.3l0.2,0.1l-0.2-0.4l-0.2-0.2
	L19,54.8l-0.2-0.1v-0.2l0.4-0.1l0.7-0.3l0.5-0.1l-0.3-0.6l-0.8,0.1L17.7,54l-0.3,0.2l0.1,0.4L17.8,55z M56.8,14.1l0.6-0.2l0.2,0.2
	l0.3,0.1l0.4,0l0.3-0.1l0.2-0.3l0.2-0.7l0.2-0.3v-0.3L58.8,12l-0.5-0.3l-1.2-0.1l-0.7,0.1l-0.6,0.2l-0.5,0.5l-0.4,0.8l1.3,0.8
	L56.8,14.1z M52.5,12.1l0.1-0.1l0.1-0.5l0.1-0.7l-0.1-2l0.1-0.1l0-0.7l0.1-0.3L53,7.5L53.7,7L53.8,7L54,7l0.2,0.1l0.2,0.3l0.1,0.1
	H56l0.3-0.1l0.6-0.5l0.3-0.2L60,6.9l0.5-0.4l-4.7,0.2l-1-0.3L54,5.7l0.1-1.3L54,3.7l0.2-0.8l0.4-0.6l0.9-0.5l0.2-0.5l-0.2-0.5
	l-0.6-0.1l0.2-0.2l1.3-0.1l-1-0.6l-0.9,1.1l-1.6,4.6l-0.2,0.8l-0.3,4.1l0,1L52.5,12.1z M111.6,22.6l0.1,0l0.1,0.1l0.1,0.3h0.2
	l0.2-0.2l0.2-0.1l0.6,0l0.3,0.1l0.1,0.3l0,0.8l0.2,0.3l0.6,0.1l0.9-0.1l-0.1-0.1l-0.1-0.2l0.4-0.2l2.7,0.5l-1.3-2.4l-0.3-0.6
	l-0.2-0.2l-0.6-0.5l-1.8-0.8l-1,0.2l-0.8,0.8l-0.6,1.5l0.1,0.5L111.6,22.6z M160.7,20.4l-0.1-0.3l-0.1-0.5l-0.3-0.2l-0.2-0.1
	l-0.1-0.2l-0.4-0.1l-1.7,0.2l-0.5,0.2h0.2l0.1,0.1l0.1,0.2l0,0.3l0,0.3l0.1,0.1l0.1,0l0,0.1l0.2,0.2l0.4,0l0.6-0.3l0,0.3l0,0.1
	l-0.1,0.1l-0.1,0.1l0.2,0.3l0.3,0.2l0.6,0.2l-0.1,0.2l-0.1,0.1l0,0v0.3l-0.4,0.1l-0.7,0.4l-0.6,0.1l-0.2,0.2l-0.4,0.8l1-0.3l0.2,0.1
	l0.1,0.2l0.2,0.2l0.3,0v0.2l-0.1,0.4l0.1,0.4l0.3,0.2l0.3,0l-0.7,0.4l-0.3,0.1l-0.2-0.2l-0.1,0.2l-0.7-0.4l-0.5,0.2l-0.4,0.7
	l-0.3,0.8l1.3,1v0.2l-0.3-0.1l-0.3,0.1l-0.1,0.2l0.2,0.3l0.2,0l0.7-0.3l0.3,0.1l-0.1,0.5l0.2,0.3l0.4,0.2l0.3,0.1l0.1,0.1l0.2,0.2
	l0.2,0.1l0.2-0.1l0.2-0.1l0.2,0l0.4,0l-0.1-0.1l-0.1-0.1l0.1-0.2l0.1-0.1l0.3-0.2l-0.2,0.6l-0.1,0.4l-0.2,0.2l0.8,0.5l0.7,0.2
	l0.6,0.1l0.3-0.2l0-0.4l-0.2-0.8l-0.1-0.1l-1,0.2l0,0h0.1l0,0l0,0.2l-0.3,0.2l0.1-1l0.5-0.2l0.5-0.1l0.2-0.6l0.2-0.4l1.1-1l0.4-0.2
	l2.2-0.3l0.2,0.1l0.2,0.2l0.2,0.1l0.3-0.3l0.2-0.2l0.3,0l0.6,0.1v0.3l-0.4,0.2l-1.2,0.8l0.4-0.3l0.5-0.2l1.1-0.1l-0.2,0.4l-0.3,0.3
	l-0.8,0.3v0.3l0.3,0.1h0.3l0.3-0.1l0.2-0.2h0.2l0.1,0.4l-0.1,0.2l-0.2,0.1h-0.3l0.5,0.2l0.2,0l0.1-0.2v-0.6l0.1-0.6l0.2-0.5l0.3-0.4
	l0.3-0.2l-0.5-0.2l-0.4-0.5l-0.6-1.1l-0.5-0.3l-1-0.2l-0.4-0.2l-0.2-0.3l-0.2-0.5l-0.2-0.7l-0.1-0.6l0.2-0.5l0.5-0.5l1-0.6l0.6-0.9
	l-0.1-1l-0.6-0.7l-1-0.2l-2.8,0.5l-0.9-0.3l-0.4-0.3l-0.3-0.4l-0.2-0.5l-0.1-0.7l0.2-0.5l0.4-0.3l0.4-0.3l0.3-0.3v-0.2l-0.6-0.3
	l-0.6,0l-3,0.9l-0.3,0.2l-0.2,0.2l-0.1,0.3l0,0.4l0.1,0l0.3-0.2l1-0.3l0.1,0.2l-0.1,0.3l-0.1,0.4l-0.1,0.2l-0.3,0.3l-0.3,0.6
	l-0.2,0.7l0.1,0.4l0.4,0.1l0.4-0.3l0.4-0.4l0.5-0.3l0.3-0.5l0.2-0.2l0.3-0.2l0.1,0.1l0.2,0.4l0.1,0.3l0.1,0.2l0.1,0.2l0.3,0.1
	l0.2,0.1l0.1,0.3l0.1,0.3l0.1,0.1l0.7,0l0.2,0l0.2-0.1l0.1-0.2l0.2-0.2l0.3,0v0.2l-0.2,0l-0.1,0.1l-0.1,0.1l-0.1,0.1v0.3l0.2,0.2
	l0.1,0.3l0.2,0.5v0.3l-0.1,0.1l-0.1,0.2l-0.2,0.5l0.2,0.3l-1.1,0l-0.5-0.2l-0.4-0.6l0.1-0.6l-0.3-0.5l-0.4-0.5l-0.2-0.5l-0.3,0.3
	v0.3l0.2,0.1l0.2,0.2l0.2,0.1l-0.1,0.4l-0.2,0.2l-0.3,0.1l-0.3,0l0.2-0.5l0.1-0.2l-0.1-0.2l-0.1-0.1l-0.1,0h-0.1l0.2-0.2l0.2-0.3
	l0.2-0.8l-0.4,0.1l-0.4,0.3l-0.4,0.4l-0.3,0.4l0.2,0.6l-0.1,0.4L160.7,20.4z M197.9,137.5l-0.1-0.1l0.1-1l-0.3-0.7l-0.5-0.6
	l-0.4-0.7l-0.1-0.2l-0.1-0.6v0l-0.2-2.4l0.2-0.4l-0.2-0.5l-0.4-0.4l-0.3-0.3l-0.5-0.2l-1-0.3l-0.5-0.3v0l-0.5-0.3l-1.4-0.5l-0.5-0.5
	l-0.1-0.6l0.2-0.7l0.4-0.7l0.3-0.7l0-0.9l-0.2-0.9l-0.3-0.6l-1-0.9l-0.5-0.6l-0.2-0.9l-0.1-0.9l-0.3-0.4l-0.4-0.3l-0.4-0.5l-0.1-0.7
	l0.3-0.6l1.2-1.3l0.4-0.5l0.3-0.6l0.2-0.7l0.1-2.1l0.1-0.3l0.5-0.8l0.1-0.3l0-0.3l0.1-0.3l0.2-0.3l0.4-0.5l-1.4-1.1l-0.2-0.5
	l0.1-0.9l0.2-0.6l0.1-0.5l-0.3-0.5v-0.2l0.4-0.6l0-0.7l-0.3-0.6l-0.6-0.3l-0.6-0.1l-0.7-0.4l-0.5-0.5l0.1-0.6l-0.5-1l-0.5-1.5
	l-0.1-1.4l1.1-1l0.5-0.8l0.4-0.8l-0.1-0.4l-0.4-0.4l0.2-0.8l0.6-1.3l-0.7-0.6l-1.4-1.5l-1.3-0.5l-0.6-0.8l-0.4-0.2l-0.2-0.2
	l-0.7-1.5l-0.3-0.4l-2.3-1.7l-0.6-0.3l-0.7-0.8l-0.4-0.2l-0.5,0l-0.4-0.1l-0.4-0.3l-0.2-0.5l0.6-0.5l0.2-0.4l0.1-0.7l0-0.5l-0.3-1.3
	l-0.1-0.4v-0.2l1-0.8l1.3-0.7l1.3-1l0.7-0.7l0.3-0.7l0.1-0.3l0.7-2l0-0.5l-0.1-0.5l-0.1-0.6l0.1-0.5l0.2-0.4l0.2-0.3l0.2-0.1
	l0.2-0.2l0.6-1.1l-0.3-0.3l-0.1-0.2l-0.3-0.3l-0.1-0.2l-0.1-0.4l0-0.7l0-0.3l-0.6-2.8l-0.2-1.9l-0.4-0.8l-0.2-0.8l-0.5-0.8l-0.2-0.7
	l0-0.8l0.1-1.3l0-0.4l-0.4-1.4l-0.3-0.7l0.1-0.6l0-1l-0.2,0l-0.3,0l-0.3-0.1l-0.3-0.2l1-0.7l0,0l0.2-0.3l-0.1-0.6l-0.1-0.1l-0.2-0.2
	l-0.3-0.1l-0.2,0.1l-0.3,0.5l-0.6,0.2l-1.7-0.1l-0.3-0.1l-0.5-0.3l-0.2,0l-0.5,0l-0.1-0.1l-0.3-0.4l-0.7-0.2l-1.6-1.3l-0.2,0.1
	l-0.4-0.3l-0.3-0.5l-0.1-0.4l-0.2-0.1l-0.4-0.1l-0.4-0.2l-0.2-0.4L172,44l1.6-1.3l0.2-0.3l0.1-0.4l0-0.3l-0.3-0.2l-0.1,0l-0.1-0.1
	l-0.1-0.1l-0.1-0.1l-0.1,0l-0.3,0l-0.1-0.1l0-0.1l0-0.2l0-0.1l-0.1-0.2l-0.1-0.3l-0.1-0.2l-0.2-0.1l-0.6-0.3l-0.1-0.1l-0.2-0.4
	l-0.6-0.8l-0.3-0.2l0.6-0.4l0.3-0.6l0.2-0.7l0.3-0.5v-0.3l-1.7-1.4l-0.7-0.3v-0.2l0.2-0.1l0.1-0.1l0-0.2l-0.1-0.2l-0.6,0.2l-1.1,0.7
	l-0.6,0.3l-2.7,0.5v0.3l0.2,0.2l0.2,0.4l0.2,0.2v0.3l-0.5,0l-0.4-0.3l-0.3-0.4l-0.3-0.5l-0.3-0.8l-0.1-0.2l-0.2-0.1L163,34l-0.2,0.1
	l-0.3-0.2l0.2-0.2l0.1-0.2l0.2-0.4l-0.4-0.2l-0.8,0.4l-0.5,0l0.3-0.3l0.3-0.2l-0.6-0.5l-0.7-1.5l-0.6-0.3l-0.7-0.2l-1.1-0.6
	l-0.7,0.1l0.2-0.2l0.1-0.1l0.2,0v-0.3h-1l-0.2-0.1l-0.1-0.3v-0.4l-0.1-0.4l-0.6-1l-0.1-0.6l0.4-0.7l-0.3-0.2l-0.9-0.5l-0.3-0.4
	l-0.2-0.5l0-0.4l0.3-0.3l-0.5-0.2l-0.9,0.3l-0.9,0.6l-0.5,0.5l-0.2,0.4l-0.2,0.6l-0.2,0.3l-0.2,0.2l-0.2,0.1l-0.4,0l-0.2,0l-0.1,0
	l-0.1-0.1l-0.4-0.5l-0.1-0.2l-0.1-0.3l-0.1-0.3l-0.2,0.3l-0.2,0.2l-0.2,0l-0.2-0.2l-0.2,0.3l-0.2-0.1l-0.2-0.3l-0.2-0.4l-0.1,0.3
	l-0.1,0.2l-0.3,0.5l0.1-0.5l0.1-0.4l0.2-0.3l0.3-0.1v-0.3l-0.3,0l-0.3,0l-0.3,0.1l-0.2,0.2l0,0.1l0.1,0.3l0.1,0.1l-1.2,0.7l-0.6,0.2
	l-0.4-0.4v0.2l-0.2-0.1l-0.1,0l-0.4,0.2v0.3l0.1,0l0.3,0.2l-1.4,0.7l-0.4,0.3l0,0.2l0,0.5l-0.1,0.2l-0.1,0.1l-0.2,0.1l-0.1,0.1
	l-0.5,0.5l-0.2,0.3l-0.1,0.4L142,30l0.3,0.1l0.3,0l-0.5,0.3l-0.5-0.1l-0.9-0.7l0.2-0.3l0-0.3l-0.2-0.4l-0.1-0.5l0.4-0.1l0.3-0.3
	l0.1-0.4l-0.1-0.4l0.1-0.3l0.2,0.1l0.1,0.1l0.3,0.1l-0.1-0.6l0.1-0.6l0.3-0.4l0.3-0.2l0.8,0.1l0.4,0.2l0.4,0.4l0.2-0.4l0.4-0.3
	l0.5,0l0.4,0.2l0-0.2l0,0h0.1l0.1,0l-0.2,0l-0.1,0l-0.1-0.1l0-0.3l0.1,0l0.2-0.2l0.1-0.1l0.1,0.3l0.1-0.5l0.2-0.1l0.6,0.1h0.4
	l0.1-0.1l0.2-0.3l0.2-0.1l0.6,0.1l0.9,0.3l2.3,0.2l0.6-0.1l0.5-0.5l-0.3-0.4l-0.6-0.2l-0.5,0.3l-0.8-0.4h-4.9l-0.9-0.4l-0.5-0.7h0.2
	v-0.2l-0.4,0.2l-0.2,0.3l-0.3,1l-0.9,1.6l-0.1,0.4l-1.3,1.9l-0.8,1.5l-0.3,0.4l-0.8,0.7l-1.6,0.9l-0.3,0.1l-0.3,0.2l-0.5,0.9
	l-0.4,0.4l-0.7,1l-0.2,0.3l0.2-0.1l0.2-0.1l0.2,0l0.2,0l-0.2,0.5l-0.6,0.4l-0.2,0.4l0.1,0.4l0.1,1l0.2,0.4l-0.5-0.6l-0.1-0.9l0.1-1
	l-0.1-1.1l-0.8,0.5l-5.1,1.1l-1.8-0.3l-0.8,0.1l-0.7,0.5l-0.5,1l-0.1,0.1l-0.1,0.1l-0.1,0.2v0.2l0.2,0.1l0,0.2l-0.1,0.3l-0.1,0.2
	l-0.1,0.2l-0.2,0.1l-0.3,0.2l-0.4,1l-0.4,0.3l-0.2,0l-0.6-0.2v0.2h0.2v0.3l-0.7,0.7l0,0.2l0.1,0.4l0,0.2l-0.2,0l-0.2,0.2l-0.2,0.3
	l0.1,0.6l-0.2,0.7l-0.2,0.6l0,0.4h-0.2l-0.2-0.1l-0.8-1l0-0.1h-0.9l-0.1-0.1l-0.2-0.5l-0.2-0.1l-0.9,0.8l-0.2,0l-0.6,0l-0.3-0.2
	l0-0.4l0.1-0.8l-0.1-0.2l-0.8-0.2l-0.2-0.3l-0.1-0.5l-0.2-0.2l-0.2-0.1l-2.6,0.4l-1.2,0.6l-0.4,0.1l-0.4,0.1l-0.6,0.7l-0.3,0.2
	l-0.1,0l-0.3,0l-0.3-0.1l-0.1-0.3l0-0.4l-0.2-0.4l-0.2-0.1l-0.8,0.1l-0.6-0.2l-0.4-0.4l-0.3-0.5l-0.3-0.7v-0.2l0.2-0.2l0.8-1.3
	l0.1-0.1l0.2-0.1l0.2,0l0.1,0.2l0.2,0.1l0.2-0.2l0.2,0l0.9-0.3l0.4-0.2l0.9-1.1l2.5-1.6l0.1-0.3l0.2-0.2l0.2-0.3l0.1-0.6l-0.1-1.1
	l0-0.6l0.2-0.5l-0.2-0.7l-0.2-1.5l-0.2-0.6l0.3,0.1l0.1,0.1l0.2-0.4l0.8-0.9l-0.7-0.3l-1.5,0.9l-0.5-0.4l-0.4,0.1l-0.4-0.2l0.5,0
	l0.4,0v-0.3l-1.8,0.2l-0.7,0.3l-0.7,0.5l-1.2,1.2l-0.7,0.4l-1,0.2l-0.9-0.2l-1.9-1.8l-3.4-1.5l-1.3-1l-0.5-0.2l-0.9-0.1l-0.2,0.1
	L96,23.5l-0.1,0.2l-0.1,0.2l-0.3,0.2l-0.8,0.1l-0.2,0.1l-0.1,0.3l-0.3,1.2L93.4,27l-0.4,0.4l-0.5,0.2l0.2-0.4l0.1-0.3l-0.1-0.3
	l-0.2-0.2l0.1-0.2l0-0.1l-0.1-0.1l-0.1-0.1l0.4-0.1l0.4-0.3l0.3-0.5l0.1-0.5l-0.1-0.6l-0.2-0.5l0-0.4l0.4-0.4l-1.3-1.1l-0.4-0.1
	L87,22.5L86.1,22v-0.2l0.9-0.1l0.9-0.3l0.9-0.5l0.7-0.6l0.3-0.4l0.2-0.4l0.2-0.5l0.1-0.7l0.1-1.5l0-0.7l-0.1-0.5l0.2-0.5l-0.1-0.2
	l-0.2,0l-0.2,0.2l-0.3-0.4l-0.6,0l-0.6,0.2l-0.3,0l0-0.3l0-0.1l0.1,0l0.1-0.1l0.1,0l0.5-0.4l0-0.1l0.2,0.1l0.3,0.1l0.3,0l0.3-0.2
	l-0.4-0.4l-0.2-0.3l-0.1-0.3l-0.3-1.3l-0.5-0.6l-0.7-0.4l-0.5,0l0.1,0.8l-1,0.4l-0.6,0.1l-0.2-0.3l-0.2-0.6l-0.5-0.4L84.2,10
	l-0.4-0.3l-0.9-0.4l-1.3-0.1l-1-0.4l-0.1-1.3l-0.3,0.2l-0.3,0.5l-0.5,0.2L79,8.9l-1.3,0.7l-0.3,0l-0.3,0.1l-0.4,0l-0.4-0.4l-0.4,0.1
	l-0.2,0.2l-0.3,0.1l-0.2,0.2l-0.3,0.1l-1.6,0l-0.4-0.1l-0.2-0.5l-0.1-0.5l-0.1-0.4l-0.4-0.3L67.6,7l-1.7-0.7L64.2,6l-0.5,0.1
	l-1.5,0.6l-0.8,0l-0.7-0.2l-0.3,1.1l-0.1,0.9l0.1,1l0.3,0.7l0.4,0.8l0.3,0.8l-0.1,0.7v0.3l0.7,0.4l1.2,1l0.6,0.4l0.3,0.5l0.7,2
	l-0.7,0.5l0.1,0.3l0.2-0.2l0.5-0.1l0.4,0l0.2,0.2l0.1,0.4l0.2,0.4l1.8,1.9l0.5,0.9v0.9l-0.1,0.6l-0.4,0.3l-0.8,0.4L66,23.9l-0.5,0.3
	L65,24.3h-2.4l-1.8,0.5l-0.5-0.2l-0.2,0.3L60,25.3l-0.1,0.4l0.2,0.4l0.3-0.5l0.3,0.1L61,26l0.4,0.1v0.3l-0.5,0l-0.7,0.1l-0.6,0.3
	l-0.3,0.4l0.1,1l0.4,0.8l0.6,0.6l0.6,0.2l0.3-0.1l0.7-0.7l0.3-0.1l0.8,0.1l0.7-0.1l1.1-0.4l0.7-0.1l0,0.1l-0.1,0.3l0,0.1l0.5-0.2
	l0.8-0.7l0.5-0.1L67,28.4L66.6,29l-0.3,0.5l-0.2,0.2l-0.4,0L64.8,30l-0.3,0.2v0.2l0.2,0.6l-0.2,0.6l-0.3,0.6l-0.2,0.7l0.1,0.2
	l0.4,0.8l0.6,1h0.2l0.4-0.4l0.7-0.3l0.8-0.1l0.5,0.2v0.2l-0.1,0.4l0.3,0.4l0.4,0.4l0.3,0.4v0.6l-0.1,0.8L68.1,38l-0.2,0.4l-0.5,0.2
	L67,38.5l-0.8-0.6l-0.5-0.2l-0.4,0l-0.8,0.4l1.8,3.6l0.7,0.9l0.8,0.6l0.5,0.2l0.2-0.4l0.2-0.2l0.5,0.2l0.8,0.4l2.7,0.1l0.8,0.2
	l0.8,0.5l1.4,1.2l0.8,0.3l0,0.7l0.3,1.2l0.5,1.1l0.5,0.5l0.3,0.1l1,0.6l0.2,0.2l0.1,0.6l0.1,1l0.3,1.2l0.7,0.8l1.6,1l0.8,0.3
	l1.9,0.2l0.8,0.5l0.3,0.5l-0.3,0.1L83,55.7l-1.3-0.9l-0.3-0.1l-0.5-0.1l-0.4-0.2l-0.3-0.3L78.7,52l-0.3-1.1l-0.3-0.4L77.5,50l-0.9-1
	l-2.1-3.7l-0.5-0.6l-0.2-0.1l-0.7,0l-0.3-0.1l-0.3-0.2l-0.4,0.3l-1.7,0l-1.7,0.4l-0.4,0.5l-0.9-0.1l-1.6,0.4l-0.9,0l-1.7-0.4
	l-0.8-0.4l-0.8-0.7l-0.5-0.6l-0.3-0.1l-0.4,0L60,43.6l-0.5,0.3l-0.4,0.4l-0.3,0.5l-0.4,1l-0.6,2.2l-0.8,2l-0.1,0.5l0,0.6l0.1,0.6
	l0.3,0.8l0.2,0.7l0.2,0.5l0.2,0.5l0.2,0.2l0.6,1.4l0.1,0.2l-0.2,1l-0.5,0.4l-0.5,0.4l-0.3,0.8l0,1.1l0.2,2.3l-0.1,0.9L57,62.2
	l-0.1-0.9l0-2l0.1-1.1l0.4-0.8l0.5-0.6l0.5-0.5v-0.3l-0.8-0.4l-1.8-0.4L54.7,55l-0.3-0.4l-0.3-0.5l-0.3-0.4l-0.4-0.2l-0.9,0
	l-0.4,0.1L51.9,54l-0.2,0.5l-0.2,1.2l-0.2,0.6l0,0.5l0.5,0.1l0.8-0.2l0.6,0.7l-0.1,1.2l-0.5,1.2l-0.5,0.8L52,60.9l-0.2,0.1l-0.3,0.1
	l-0.4,0L50.8,61l-0.2-0.3l-0.2-0.3l-0.2-0.1l-0.2-0.1l-0.4-0.5l-0.3-0.1l-0.4,0l-0.2,0.1l-0.3,0.1l-0.3-0.3L48,58.9l-0.4-1.2
	l0.4-0.2l0.8-0.1l0.4-0.2l0.5-0.4l0.2-0.3l0.1-0.7l-0.2-0.4l-0.5-0.1l-0.3-0.2l0.2-0.5v-0.2L48.4,54l-0.9-1.1l-0.6-1.3l0.1-1v-0.3
	l-1.7-0.5l-6.5,0.9l-3.2,0.7l-0.5-0.1l-0.2-0.3l-0.2-0.2l-3.3,0.4l-1.7,0.7l-0.8,0.8l-0.4,0.3l-0.8,0.9L27,54.2l-0.3,0.4l0,0.5
	l0.3,0.3l0.6,0.3l0.2,0.3l0,0.5l-0.2,0.4l-0.2,0.1l-0.1,0.3L26.5,57l-0.4,0l-0.2,0.3l-0.1,0.5l-0.4,1.1l-0.1,0.6l0,2.7l0.3,1
	l0.8,0.4l4.9,0.2l0.9,0.3l0.5,0.8l-0.4-0.2l-0.7-0.5l-0.5-0.1l-0.5,0l-0.3,0.2l-0.5,0.8l0.2,0.4l-0.1,0.4l-0.2,0.4l-0.2,0.3
	l-0.2,0.3L29,67l0.1,1l0,0.6L29,69.1l-0.1,0.6l-0.3,0.8l-0.1,0.3l0,0.4l0.1,0.2l0.1,0.2l0.1,0.3l0.2,2.6l0,1.3L28.7,77l-0.5,1.2
	l-1.8,2.8L26.1,82l-0.2,1.2l-0.2,3.8l-0.2,1.2l-0.4,0.8l-0.8-0.2l-0.3-0.1L23,88.9l-1.1-0.3l-2.1,0l-0.7,0.2l-0.8,0.6l0.2,0.4l0,0.3
	l-0.1,0.3l0,0.3l0.2,0.2l0.7,0.6L18,92l-0.3,0l0.3,0.6l0.1,0.6l0,0.6l0.1,0.5l0.4,0.5l0.6,0.3l1.7,0.2l1.1,0.4l0.6,0.1l0.6,0
	l0.5-0.2l0.2-0.2l0.1-0.2l0.1-0.1l1.3,2.1l0.3,0.9l-0.2,1.3l-0.4,1l-0.2,0.5l0,0.6l0.2,0.7l0.2,0.3l-0.1,0.2l-1,0.6l-0.2,0.3
	l-0.5,0.8l-0.4,0.4l-0.9,0.4l-0.4,0.4l-0.5,1l-0.3,0.2l-1.4,0.2l-0.3,0.2l-0.4,0.4l-0.1,0.2l-0.2,0.4l-0.2,0.2l-0.3,0.1l-0.2,0
	l-0.2,0.1l-0.2,0.4l0,0.5l0.3,0.2l0.5,0.1l1.4,0.8l0.6,0.6l0.1,0.2l0.1,0.2l0,0.4l-0.1,0.1l-0.2,0l-0.2,0.2l-0.5,0.9l-0.5,0.6
	l-0.6,0.3l-1.9,0.1l-2.1,0.7l-1.1,0.8l-0.4,0.2h-0.4l-1.4-0.4l0.2,0.8l-0.1,0.4l-0.8,0.2l-0.1-0.5l-0.4-0.2l-0.8-0.1l-0.1-0.1
	l-0.2-0.4l-0.2-0.1l-0.2,0L8,115.9l-0.7-0.3l-0.7-0.6l-0.7-0.3l-0.7,0.4l0.3,0.2l0.8,0.8l0.3,0.5l-0.3-0.1l-0.5-0.1L5,116.2
	l-0.9,0.2l-0.3,0.2L3.4,117l-0.4,0.2l-0.9,0.2l-0.4,0.3l-0.1,0.3l0.5,0.4l0.3,0.7l0,0.7l-0.5,0.5l0,0.4l0.2,0.1l0.6,0l0.2,0.1
	l0.5,0.4l0.2,0.2l-0.3,1l0.5,0.6l1.5,0.6l-0.2,0.8L5,124.8l0.1,0.4l1.4,2l0.9,1l0.2,1.1l0.1,0.6l-0.1,0.7l-0.2,0.7l0,0.6l0.3,0.4
	l-0.1,0.3l-0.1,0.8l-0.1,0.4l-0.2,0.3l-0.5,0.4l-0.2,0.2l-1.1,2l-0.5,0.6l-0.2,0.4l-0.2,0.7l-0.1,0.8l0.2,0.6l0.5,0.3l1.1-0.7
	l0.5,0.2l-0.2,0.1l-0.5,0.4l0.5,0.4L6,140.9l-1.2,0.7l-2,1.6l-0.3,0.3l-0.4,0.9l-0.3,0.3l-0.4,0l-0.3-0.3l-0.3-0.3l-0.3-0.2L0,144.2
	l0.1,0.8l0.3,1l0,0.9l0.3-0.1l0.6-0.3l0.3-0.1l0.3,0l0.6,0.2l0.8-0.1l0,0.2l-0.1,0.3l-0.1,0.3l0,0.5l0.1,0.3l0.2,0.2l0.5,0.3
	l0.7,0.2l0,0.1l-0.1,0.2l0,0.2l0.2,0.7l0,0.3l-0.1,0.4L4.2,151l-0.5,0l-0.3,0.2l-0.2,0.3l0,0.3l0,0.3l-0.1,0.4l-0.3,0.3l-0.3-0.1
	l0.1,0.4l0.2,0.3l0.2,0.2l0.1,0.2l0,0.4l0,0l0,0l0,0l0,0.1v0.1l0,0l0,0l0.2,0.1l0.1,0.1l0,0.2v0.1l-0.1,0.4l0.1,0.2l0,0.1l0.3,0
	l0.9-0.2l0.4,0l0.4,0.4l0.2,0.4l1.1,1.6l0,0l-0.3,0.2l0.3,0.5l0.4,0.2l1.5,0l0.1,0.2l-0.1,0.2l0,0.1l-0.2,0.3v0.1l-0.5,0.3l-0.4,0.3
	l-0.3,0.2l-0.4,0.6l0,0l0.4,0.4L6.8,162l0,0.1v0l0.2,0.1l0.2,0h0l-0.2,0.3l0.1,0.1l0,0h0l0.1,0.1l0.1,0.3l0.1,0.1l0.1,0l0.1,0l0.1,0
	l0.6-0.2l0.1,0l0,0l0,0l0.1,0l0,0l0.1,0l0.3,0.2l0.9,0.2l0.4,0l-0.2,0.2l0,0.1l0,0.2l0,0.1l0.1,0.2l0.1,0.3l0.1,0.1l0.1,0.2l0.1,0h0
	l0,0.1l0,0v0l0,0.1l0,0.5l-0.1,0.8l0,0l-0.1,0.4l0,0.4l0.7,1.3l0,0.5v0l-0.2,0.2l-0.1,0.1l0,0l-0.6,0.1l-0.3,0l-0.2-0.1l-0.1,0
	l-0.2,0l-0.1,0.1l-0.2,0.1l-0.1,0.2l-0.1,0.1L9,169.9l0,0.3l0.1,0.3h0l-0.4,0.4l-0.5,0.2l-0.4,0.1l-0.5,0.2l-0.1,0.2l-0.1,0.1
	L6.7,172l-0.1,0.1l-0.2,0.3l0,0l0.3,0.3l0,0.1l0.1,0.3l0,0.4l-0.1,0.3l0,0l-0.1,0.1l-0.4,0l0,0L5.8,174l0,0.1l0,0l0,0.2l0,0.2
	l-0.1,0.2l0.2,0.2l0.1,0.2v0l0,0.1l0,0.2l-0.2,0.2L5.6,176l-0.1,0.5l-0.1,0.9l0,0l0.1,0l0,0l-0.1,0.1l-0.2,0.4l0.2,0.1l0.1,0.3
	l0.1,0.7l-0.1,0.4l0.1,0.3l0.4,0.6l0.3,0.9l0.2,0.3l0.2-0.5l0.4,0.6l0.7,1.7l0.3,0.3l0.7,0.3l0.3,0.2l0.1,0.2l0.2,0.6l0,0.1l0.2,0
	l0.3-0.2l0.2,0l0.4,0.2l0.6,0.6l0.4,0.2l0.4,0.1h1l0.7,0.2l0.1,0l0.1,0.1l0,0l0,0.3l0,0l-0.1,0.7l0,0.2l0.1,0.1l0,0.1l-0.2,0.2
	l0,0.3l0.1,0.3l0.1,0.2l0.2,0.2l-0.2-0.1l-0.1,0.1l-0.1,0.2l0.1,0.2l0,0.1l-1.6,1l-0.3,0.5l0,0.1l0.1,0.1l0.1,0.1l0,0.2l-0.1,0.1
	L12,192l-0.2,0.4l-0.6,0.7l-0.3,0.5l-0.1,0.4v1l-0.2,1.4l0.1,1v0.2l0.2,0l0.2,0l0.4-0.3l0.2-0.1l0.2,0l2,1l0.4,0.4l0.1,0.3l0.1,0.3
	l0,0.2l0,0l0.1,0.2l1,1.1l0.1,0.2l-0.1,0.3l-0.4,0l-0.1,0.3l0.1,0.4l0.4,0.4l1.4,1.4l0,0.1l0,0.3l0,0.1l0.1,0.1l0.3,0.1l0.1,0.1
	l0.2,0.6l0.1,0.1l0,0.1l0,0.3l0.1,0.1l0.1,0l0.3-0.2h0.1l0.1,0.5l-0.1,0.4l-0.1,0.4l0.3,0.5l0.3,0.1l1,0l0.8,0.3l0.3-0.1l0.4-0.5
	l-0.1-0.5l-0.2-0.5l0.1-0.5l0.2-0.1l0.9,0.2l0.6-0.1l0.2,0l1.3,0.8l0.5,0l0,1.2l0.2,0.9l0.5,0.4l0.7-0.4l0-0.2l-0.1-0.2l0-0.2
	l0.2-0.2l0.1,0l0.8,0.6l0.3,0.2l0.3,0.1l1.9,0l0.6,0.3l0.1,0l0.1-0.1l0.2-0.5l0.1-0.2l0.2-0.1l0.4-0.1l0.2-0.1l0.1-0.2l0.2-0.5
	l0.1-0.2l0.4-0.2l0.5-0.2l0.4,0l0.1,0.4l0.9,0.1l0.4,0.1l0.1,0.5l-0.2,0.1l-0.1,0.1l0,0.1l0.3,0.3l0.5,0.8L36,210l0.5,0.3l0.9,0.2
	l0.5,0.2l0.2,0.2l0.2,0.4l0.2,0.2l0.3,0.1l0.3-0.1l0.3-0.1l0.3-0.1l0.2,0l0.5,0.2l0.2,0l0.3-0.1l0.5-0.3l0.2-0.1l1.8,0.5l1.2-0.1
	l0.4,0l3.4,1.8l2.1,0.4l0.3,0.2l-0.5,0.5l-0.7,1.3l-1,2.7l-0.3,0.5l-0.1,0.1l-0.8,0.4l-0.2,0l0,0.1l-0.1,0.1l-0.1,0.2l0,0.3l0,0.2
	l-0.1,0.1l-0.2,0.1l-0.6,0l-0.2,0.1l-0.1,0.3l0,0.6l-0.1,0.3l-0.2,0.3l-0.3,0.3l-0.3,0.2l-0.6,0.7l-0.3,0.3l-0.4,0.1l-0.3,0.2
	l-0.9,1.4l-0.2,1.1v1.1l0.3,0.7v0.2l-0.5,0.4l-0.3,0.3l-0.1,0.3l0,0.6l-0.1,0.3l-0.1,0.2l-0.1,0.3l-0.1,0.4l-0.2,0.9l0,0.4l0.1,0.4
	l0.1,0.4l0.1,0.4l0,0.5l-0.3,0.5l-0.4,0.2l-0.4,0.3l-0.2,0.7l0,0.7l-0.1,0.5l-0.2,0.5l-1.4,1.9l-0.1,0.4l0,0.5l-0.1,0.3l-0.1,0.2
	l-0.2,0.3l-0.1,0.5l-0.1,0.6l0.1,1.3l0.9,1.6l0,1l-0.2,0.4l-0.6,0.6l-0.1,0.4l0,0.5l0,0.1l-0.1,0.3l-0.1,0.2l-0.1,0.1l-0.1,0.1
	l0,0.1l0,0.1l0,0.1l0,0.1L37,250l-0.1,0.4l-0.3,0.2l-0.1,0.2l-0.3,1l-0.1,0.5l0.3,1.1l0,0.5l-0.1,0.2l-0.4,0.4l-0.1,0.2l0.1,0.7
	l0.1,0.3l0.1,0.1l0.3,0.2l0.3,0.4l0.5,1l0.1,0.2l0.1,0.1l0.1,0.2l0,0.3l0,0.1l-0.1,0.3l1.1-0.3l0.5-0.1l-0.3,0.8l-0.2,0.2l-0.6,0
	l1.1,0.6l0.5,0.1l1.8-0.4l0.4-0.2l0.3-0.4l0.4-0.6l0.3,0.2l1.4,0.1l0.1,0.1l0.1,0.3l0,0.3l0.1,0.1h2.8l1-0.2l0.2-0.1l0.1-0.1
	l0.1-0.2l0.2-0.2l0.2-0.1l0.5-0.3l0.4-0.1l0.2-0.2l0.1-0.2l0.1-0.1l1.2-0.2l0.4,0l0.6,0.2l0.2,0l0.1,0.1l0.1,0.3l0.1,0.3l0.2,0.1
	l0.8,0.2l1.4,0l0.7-0.1l0-0.2l0.3-0.5l0.7-0.4l0.7-0.1l0.3,0.3l0.3,0.4l0.2,0.3l0.3-0.1l0.1-0.2l0-0.2l0-0.2l0-0.2l0-0.1l-0.1-0.1
	l0-0.1l0.1-0.2l0.1-0.1l0.1,0l0.1,0l0,0.1l0,0.2l0.1,0.1l0.1-0.8l-0.2,0l-0.3-0.1l-0.3-0.1l-1,0.2l-0.3,0.2l-0.3,0.2l-0.3,0.2
	l-0.4,0l-0.4-0.3l-0.6-0.4l-0.1,0l-0.3-0.1l0.1-0.3l-0.1-0.3l-0.1-0.2l0-0.2l0.2-0.2l0.5-0.3l0.2-0.2l0.2-0.6l0.1-0.2l0.3-0.4
	l0.2-0.1l0.2,0l1.2-0.2l0.3-0.2l-0.2-0.5l0.3-0.2l0.5,0l0.4,0.2l0,0.2l0,0.4l0.1,0.4l0.2,0.2l0.3-0.2l0.1-0.7l0.2-0.2l0.3,0.1
	l0.2,0.3l0.2,0.4l0.2,0.3l0.2,0.1l0.2-0.1l0.2,0l0.1,0.3l-0.1,0.1l-0.3,0.4l-0.1,0.2l0.1,0.3l0.2,0.2l0.1,0.2l0,0.2l1.1,0l-0.2-0.2
	l0.2-0.6l0.6,0l0.7,0.4l0.6,0.5l-0.4,0.1v0.2l0.3,0.3l0.6,0.5l0.5,0.1l0.8-0.1l0.8-0.3l0.3-0.4l0.4-0.2l2.4,0.3h1.2l0.3,0.5H73
	l0.8,0.2l6,3.7l1.4,0.4l1.4,0l0.6-0.3l0.3-0.5l0.3-0.6l0.5-0.5l0.3-0.2l0.3,0l0.3,0.1l0.3,0.3l0.1,0.4l0,0.4l0.1,0.3l0.4,0.2l0.2,0
	l0.3-0.2l0.1,0l0.7,0.2l0.6,0l0.3-0.1l0.3-0.2l0.1,0.5l0.2,0.3l0.3,0.3l0.2,0.4v0.1l0,0.1l0,0.2l0.2,0.1l0.2-0.1l0.2-0.2l0.2-0.1
	l1.1,1.6l0.2,0.4l-0.1,0.3l-0.5,0.4l0.2,0.3l0.1,0.3l0,0.3l0.1,0.3l0.2,0.2l0.1,0l0.2-0.1l0.3-0.1l0.1,0l0.2,0.1h0.1l0.1-0.1
	l0.3-0.3l1-0.2l0.4,0.2l0,0.6l-0.4,1.2l0.1,0.2l0,0.2l-0.1,0.2l-0.1,0.1l-0.3,0.1l-0.1,0.1l-0.2,0.4l-0.1,0.2l0.1,0.1l1.7-0.2
	l0.5-0.2l1-0.6l0.4-0.4l0.4-0.5l0.5-1l0.1-0.2l0.2-0.2l0.5-0.2l0.2-0.1l0.4-0.5l0.3-0.6l0.2-0.7v-0.7l-0.1-0.4l-0.1-0.3l-0.2-0.2
	l-0.3-0.2l0.2-1.3l0-0.3l-0.1-0.4l-0.2-0.4l0-0.3l0.3-0.1l0.4-0.1l0.2-0.1l0.1,0.1l0.1,0.3l0,0.1l-0.1,0.2l-0.1,0.2l0,0.3l0.1,0.1
	l0.2,0.1l0.3,0.2l0.9,0.1l0.3,0l0.3-0.2l0.4-0.6l0.3-0.2l0.5,0l2.9,1.1l0.1,0.1l0.1,0.2l0.1,0.2l0.2,0.1l0.6-0.1l0.9-0.4l0.3-0.1
	l0.3,0l0.2,0.1l0.5,0.4l-0.2,0.2l-0.7,0.5l0.1,0.2l1.1,0.5l1.1,1.2l0.1,0.1l0,0.2l0,0.2l-0.1,0.1l-0.1,0l0.2,0.4l0.3,0.2l2.3,0
	l0.4-0.1l1.4-1l0.5-0.1l0.5,0.2l0,0.9l0.5,0.1l0.5-0.2l0.3-0.3l0.3-0.4l0.4-0.4l0.4-0.1l0.9,0l0.4-0.2l0.2-0.3l-0.1-0.2l-0.2-0.2
	l-0.3-0.1l1-1.2l0.5-0.1l0.5,0.1l0.5,0.2l1-0.2l0.5-0.2l0.4-0.4l0.1-0.3l0.2-0.7l0.2-0.3l0.6-0.5l0.1-0.1l0.4,0l0.9,0.2l1.8,0
	l1.2,0.2l0.2-0.1l0.2-0.5l0.2-0.2l1.8-0.4l5,0.2l0.2,0l0.6-0.8l0.1-0.2l0-0.3l0-0.9l-0.1-0.2l-0.1-0.1l-0.2-0.2l-0.2-0.2l-0.1-0.2
	l0-0.3l0.3-0.1l0.5-0.4l0.2-0.1l0.3-0.1l0.1,0l-0.1,0.2l-0.1,0.3l-0.1,0.3l-0.1,0.2l-0.1,0.2l0.1,0.3l0.2,0.2l0.2,0l0.5-0.3l0.5-0.1
	l1.2,0.3l0.4-0.1l0.8-0.3l0.4,0.1l0.1,0.2l0.2,0.7l0.1,0.3l0.2,0.2l0.6,0.5l0.3,0.1l0.5,0l0.5-0.1l0.3-0.2l1-0.9l0.4-0.2l0.8-0.2
	h0.8l1.2,0.3l0.4-0.1l-0.2,0.6l0.3,0.4l0.6,0.4l0.4,0.4l-0.6,0.3l-0.3,0.7l0.1,0.8l0.5,0.4l0.3,0.1l0.2,0.1l0.2,0.1l1,1.1l1.1,0.8
	l0.2,0.1l0.2-0.1l0.2-0.1l0.2,0l0.2,0.1l0.1,0.1l0.1,0.1l0.2,0l0.2-0.1l0.6-0.7l0-0.3L155,261l-0.1-0.2l0-0.2l0-0.2v-0.6l0.1-0.1
	l0.2-0.5l0,0l0,0l0-0.7l0.1,0l0.4-0.5l0-0.1l0.3-0.6l0.1-0.1l0-0.4l0-0.4l-0.1-0.4l-0.2-0.5l-0.4-0.7l-0.3-0.3l-0.3-0.2l-0.3-0.1
	l-0.5,0.2l-0.3,0.1l-1.2-0.2l-0.4-0.4l0.4-0.6l0,0l0.1-0.2l0-0.2l0-0.2l0-0.2l0.1-0.3l1.4-2.2L154,250l-0.5-0.7l-0.7-1.7l-0.4-0.4
	l-0.2-0.1l-0.4-0.4l-0.5-0.3l-0.2-0.3l-0.1-0.3l-0.1-0.4l-0.3-0.7l-1.5-1.6l-0.2-0.3l-0.2-0.4l-0.1-0.4l0-0.4l0.1-0.2l0.1,0l0.1,0
	l0.1-0.1l0.3-0.5l0.1-0.1l0.9-0.6l0.3-0.3l0.4-0.6l0.2-0.2l0.3-0.2l1.2-0.2l0-0.1l0.3-0.3l0.7-0.4l0.8-0.8l0.3-0.2l2.2-0.9l3-0.5
	l0.7-0.4l2.1-1.8l0.3-0.5l0.1-0.7l0-0.2l0.1-0.2l0.1-0.2l0-0.3l0-0.9l0-0.3l0.1-0.3l0.3-0.6l0.1-0.3l0-0.3l-0.2-0.3l-0.1-0.6
	l-0.1-0.1l0-0.1l0.1-0.2l0.2-0.2l0.7-0.3l0.7-0.1l2.2,0.6l0.4,0.2l0.3,0.3l0.3,0.5l0.9,0.4l0,0l0.2-0.9l0.2-0.4l0.1,0l0.4-0.1
	l0.2-0.1l0.2-0.2l0.1-0.2l0.4-0.8l0.1-0.4l0.1-0.5l0-0.5l-0.1-1l0.1-0.4l0.3-0.3l-0.3-0.1l-0.1-0.1l-0.2-0.5l-0.1,0l0-0.3l0.6-1.4
	l-0.4-0.4l-1-2.1l-0.5-0.8l-0.3-0.2l-0.8-0.1l-0.4-0.2l-0.4-0.4l-0.3-0.5l-0.2-0.6l-0.1-0.6l-0.4,0l-0.4-0.2l-0.4-0.3l-0.4-0.2
	l-0.5-0.1l-0.3,0.1l-0.2,0.4l-0.2,0.6l-0.5-0.2l-0.7-0.5l-0.6-0.6l-0.3-0.5l0-0.9l-0.2-0.6l-0.9-0.9l-0.7-0.9l-0.3-0.2l-0.4-0.2
	l-1.3-0.1l-0.6-0.4l-0.3-0.5l-0.3-0.7l-2-2.7l-0.3-0.2h0v0l-0.7-0.8l-0.1-0.3l0-0.3l-0.1-0.3l-0.4-0.2l-0.6-0.6l-0.3-0.3l-0.4-0.2
	l-0.8-0.2l-0.3,0.1l0.1,0.4l-0.4,0.1l-1.3-0.2l-0.4-0.2l-0.3-0.4l-0.7-1.6l-0.4-0.4l-1-0.5l-0.4-0.4l-0.2-0.5l-0.1-0.5l-0.1-1.1
	l0-0.6l-0.2-0.1l-0.2,0l-0.2-0.1l-0.2-0.2l-0.2-0.2l-0.1-0.3l-0.1-0.4l-0.1-0.4l-0.1-0.7l-0.2-0.4l-0.2-0.2l-0.5-0.3l-0.2-0.3l0-0.1
	l0.1-0.3l-0.2-0.1l-0.1,0l0.2-0.4l0-0.4l-0.2-0.4l-0.3-0.2l-0.7-0.3l-0.3-0.2l-0.3-0.3l-0.4-0.6l-0.2-0.4l-0.1-0.3l0.3-0.5l0.9-0.4
	l0.3-0.3l0.1-0.5l0-0.7l0.1-0.5l0.4,0.1l0.2-0.5l0.5-0.9l0.2-0.5l0.1-0.7l-0.1-0.2l-0.3-0.1l-0.9-0.5l0-0.4l0.2-0.4l-0.1-0.5
	l-0.4-0.4l-0.8-0.1l-0.3-0.3h0l-3.3-1.8l-0.1-0.2l0-0.3l0-0.3l-0.2-0.3l-0.3-0.3l-0.3-0.2l-0.3-0.3l-0.2-0.5l0-0.5l0.1-0.8l-0.1-0.5
	l-0.2-0.4l-0.2-0.4l-0.5-0.6l-1.1-0.7l-0.2-0.4l0.3-0.4l0.2-0.1l0.1-0.2l0-0.4l-0.1-0.5l-0.2-0.3l-0.5-0.5l1.6,0.1l0.4,0.3l0.1,0.3
	l0,0.6l0.1,0.3l0.2,0.2l0.3,0.1l0.6,0l0.2,0.1l0.1,0.1l0,0.2l-0.1,0.2l0,0l0,0l0,0l0,0l-0.1,0.1l0,0.1l0,0.1l0.1,0.1l0.4,0.4
	l0.1,0.1l0.1,0.2l0,0.2l0,0.2l0.3,0.9l0.2,0.3l0.4,0l0.3-0.2v-0.3l-0.1-0.4l-0.1-0.4l0.1-0.6l0.1-0.3l0.4-0.5l0.1-0.5l0.2-0.3
	l0.2-0.2l0.2-0.3l0.7-1.2l0.2-0.2l0.6-0.4l0.3-0.2l0.1,0l0.2,0l0.1,0l0-0.1l0-0.1l0-0.1v-0.1l0.1-0.1l0-0.2l0.1-0.2l0.2-0.1l0.6-0.5
	l0.9-0.3l1.6-0.1l1.2,0.2l0.3,0l0.2-0.2l0.5-0.7l0.3-0.3l0.3-0.1l0.3,0l0.4,0.1l0.1-0.1l0.3-0.2l0.2,0l0.2,0.1l2,1.2l0.7,0l0.6-0.6
	l0.3-0.4l0.1-0.6l0.1-1.4l0.2-0.1l0.2,0l0.2,0l0.2,0.1l0.2,0.1l0.2,0l0.2,0l0.2-0.1l0,0l0.6-0.2l1.1,0.1l0.5-0.4l0.3-0.6l0.7-1.9
	l0.4,0l0.4,0.2l0.4,0.2l0.5-0.2l0.2-0.7l0.1-0.2l0.8-0.6l0.1-0.1l0-0.1l0.1,0l0.3,0.1l0.1,0.1l0.3,0.5l0.1,0.2l0.5,0.2l0.4-0.1
	l0.4-0.3l0.4-0.5l0.2-0.1l0.1-0.2l0-0.2l-0.1-0.3l0.4-0.3l0.3-0.4l0.1-0.5l-0.3-0.5l0.9-0.5l1-0.2l1.9,0l0.4-0.1l0.8-0.3l0.5,0
	l1,0.1l0.4-0.1l0.6-0.4l0.1,0l0.1,0l0.2-0.2l0-0.2l-0.1-0.2l0-0.3l0.1-0.3l0.2-0.2l0.2,0l0.2,0.1l0.3,0l0.2-0.2l0.3-0.4l0.2-0.2
	l0.4-0.1l0.8,0.1l0.4,0l3.4-1.5l0.3-0.2l0.4-0.6l0.2-0.2l0.8-0.2l1.7,0.1l0.6-0.5l0.1-0.9l-0.6-0.3l-0.8-0.2l-0.6-0.5l0-0.4l0.2-0.1
	l0-0.1l-0.4-0.2l-0.7-0.1l-0.3-0.2l0.2-0.4l0.3-1l0.5-0.5l0.7-0.1l0.8,0.3l0.2,0.1l0.1,0.2l0.1,0.2l0.2,0.1l0.2,0l0.6-0.3l0.8,0
	l0.2-0.1l0.2-0.5l0.1,0.3l0,0.2l0.1,0.2l0.2,0.3l0.3,0.2l0.6,0.1l0.3,0.2l0.3,0.3l0.2,0.3l0.1,0.3l0,0.5l-0.2,0.4l-0.3,0.5l-0.1,0.4
	l0.2,0.2l1.2-0.5l0.3,0l0.1,0.4l-0.1,0.5l-0.4,0.9l-0.1,0.6l0.1,0.3l0.7,0.2l0.3,0.2l0.8,0.6l0.8,0.2l0.5,0l0.3-0.1l0.2-0.2l0.2-0.4
	l0.3-0.9l0-0.6l0.3-0.5l0.8-0.9l1.1-2.6l1-2.4l0.1-0.4v-0.7l0-0.3l0.1-0.2l0.2-0.2l0.1-0.2l0-0.4l0-0.9l0.2-1l0.3-0.9L197.9,137.5
	L197.9,137.5z"/>
</svg>
