<?xml version="1.0" encoding="utf-8"?>
<!-- Generator: Adobe Illustrator 22.1.0, SVG Export Plug-In . SVG Version: 6.00 Build 0)  -->
<svg version="1.1" id="Layer_1" xmlns="http://www.w3.org/2000/svg" xmlns:xlink="http://www.w3.org/1999/xlink" x="0px" y="0px"
	 viewBox="0 0 930.9 159.6" style="enable-background:new 0 0 930.9 159.6;" xml:space="preserve">
<style type="text/css">
	.st0{fill:#FFFFFF;}
</style>
<title>partner</title>
<path class="st0" d="M896.3,54.1c-22.6,0-33.6,8.7-34.5,24.9h22.3c0.3-4.3,2.7-7.4,12.2-7.4c8.4,0,12.3,2.7,12.3,6.8
	c0,3.6-2.3,5-7.9,5.6l-14.6,1.5c-19.8,2.1-28.7,10.3-28.7,25.2c0,13.8,8.5,24.5,26.6,24.5c12.3,0,19.6-4,26-11.9v9.6h21V82.7
	C930.9,61.6,918.6,54.1,896.3,54.1 M909.1,103.2c0,8.4-7.9,14.6-20.1,14.6c-5.9,0-9.4-2.7-9.4-7.9c0-4,2.4-7.3,10.2-8.4l13.2-1.8
	c2.3-0.3,4.7-0.8,6.1-1.2V103.2z M822.4,85c19.5,2.6,29.2,8.7,29.2,24.6c0,16.1-11.4,25.7-35.6,25.7c-26.3,0-35.6-10.5-36-25.8h22.6
	c0.6,5.6,4.6,8.4,13.4,8.4c9,0,12.6-2.1,12.6-6.4c0-4-3-5.8-10.9-6.8l-8.1-1.1c-16.9-2.3-26.6-8.8-26.6-24
	c0-14.6,10.8-25.4,33.4-25.4c21,0,32.2,8.4,33.3,24.9h-22.3c-0.8-4.4-3.2-7.1-10.9-7.1c-7.6,0-10.5,2.6-10.5,5.9s1.8,5.2,8.4,6.1
	L822.4,85 M743.9,54.1c19.9,0,30.1,8.8,30.1,34V133h-23V89.2c0-10.2-4.4-14.7-14-14.7c-8.7,0-13.8,4.6-13.8,14.7V133h-23V56.4h21.6
	v8.8C725.1,59.3,731.6,54.1,743.9,54.1 M656.2,54.1c-22.6,0-33.6,8.7-34.5,24.9H644c0.3-4.3,2.7-7.4,12.2-7.4
	c8.4,0,12.3,2.7,12.3,6.8c0,3.6-2.3,5-7.9,5.6L646,85.6c-19.8,2.1-28.7,10.3-28.7,25.2c0,13.8,8.5,24.5,26.6,24.5
	c12.3,0,19.6-4,26-11.9v9.6h21V82.7C690.8,61.6,678.5,54.1,656.2,54.1 M669,103.2c0,8.4-7.9,14.6-20.1,14.6c-5.9,0-9.4-2.7-9.4-7.9
	c0-4,2.4-7.3,10.2-8.4l13.2-1.8c2.3-0.3,4.7-0.8,6.1-1.2V103.2z M580.8,54.1c19.5,0,29.6,8.8,29.6,34V133h-23V89.2
	c0-10.2-4.4-14.7-14-14.7c-8.7,0-13.8,4.6-13.8,14.7V133h-23V26.8h23.1v37.1C563.8,58.2,570,54.1,580.8,54.1 M512.5,56.4H530v18.7
	h-17.5v29.8c0,8.2,4.3,10.3,10.9,10.3c2.7,0,6.5-0.5,6.5-0.5v18.4c0,0-5.3,1.2-10.9,1.2c-18.4,0-29.5-8.4-29.5-26.9V75.1H478V56.4
	h11.6V34h23L512.5,56.4L512.5,56.4z M432.3,53.5c0-18.5,11.7-28.4,30.1-28.4c5.9,0,9.7,0.9,9.7,0.9v18.5c0,0-3.2-0.3-5.9-0.3
	c-7.1,0-10.9,2.4-10.9,9.1v3h16.9V75h-16.9v58h-23V75.1h-11.6V56.4h11.6L432.3,53.5 M391.7,56.4h23V133H393v-8.8
	c-3.2,5.9-9.7,11.1-21.7,11.1c-19.6,0-29.8-8.8-29.8-34V56.4h23v43.8c0,10.2,4.4,14.7,13.7,14.7c8.4,0,13.5-4.6,13.5-14.7V56.4z
	 M290.6,111.6h45.7V133H266V26.6h24.6V111.6z M79.8,0C35.7,0,0,35.7,0,79.8s35.7,79.8,79.8,79.8s79.8-35.7,79.8-79.8S123.9,0,79.8,0
	 M79.8,154.8c-41.4,0-75-33.6-75-75s33.6-75,75-75s75,33.6,75,75S121.2,154.8,79.8,154.8 M110.7,63.9c-0.6,0-1.1,0-1.4,0
	c-0.3,0.6-0.8,1.4-1.6,2.6c11.4,0,21.8,0.9,33.3,3l-3.2,3.1c-10.4-1.8-19-2.6-29.9-2.6c-1.6,0-1.9,0-2.3,0c-0.4,0.6-1.2,1.7-2.1,2.7
	c1-0.1,2.9-0.1,5.5-0.1c9,0,17.4,0.7,26.6,2.1l-3.2,3.1c-7-1.1-15.5-1.7-23.1-1.7c-2.7,0-5.8,0.1-8.6,0.3c-0.6,0.7-2.2,2.5-2.7,3
	c3.7-0.4,7.7-0.6,12.5-0.6c6.8,0,13.3,0.4,19.5,1.4l-3.2,3.1c-4.4-0.5-9.7-0.9-14.4-0.9c-12.1,0-21.7,2.6-31.6,8.7
	c9.4,10.1,24.9,16.5,39.8,16.5h1.4l-5.2,5.1C95,108.8,72.2,99.3,53.1,86.3c-18.5-12.4-25-16.1-39.4-22.5l-0.1-3.7l9.7,4.2l3.3-2.6
	l31.8,14.6L56.3,78L40,70.9l-1.6,1.3l8.5,4.7c7.2,4,12.6,5.8,17.7,5.8c11,0,20.9-7.8,27.3-21.6c4.8-0.6,9.9-0.9,16.1-0.9
	c12.6,0,24.9,1.2,38.8,3.8l-3.4,3.3C134.8,65.4,120.1,63.9,110.7,63.9"/>
</svg>
