<?xml version="1.0" encoding="utf-8"?>
<!-- Generator: Adobe Illustrator 22.1.0, SVG Export Plug-In . SVG Version: 6.00 Build 0)  -->
<svg version="1.1" id="Layer_1" xmlns="http://www.w3.org/2000/svg" xmlns:xlink="http://www.w3.org/1999/xlink" x="0px" y="0px"
	 viewBox="0 0 7.8 9.9" style="enable-background:new 0 0 7.8 9.9;" xml:space="preserve">
<style type="text/css">
	.st0{fill:#FDAC2A;}
	.st1{fill:#04275B;}
</style>
<path class="st0" d="M3.9,0C1.7,0,0,1.7,0,3.9l0,0l0,0c0,3,3.7,6,3.9,6l0,0c0.1-0.1,3.9-3,3.9-6C7.7,1.7,6,0,3.9,0L3.9,0"/>
<title>map-pin-orange</title>
<g>
	<path class="st1" d="M3.9,0.7c-1.8,0-3.2,1.4-3.2,3.2c0,1.8,1.4,3.2,3.2,3.2c1.8,0,3.2-1.4,3.2-3.2C7.1,2.1,5.7,0.7,3.9,0.7z
		 M3.9,6.8C2.3,6.8,1,5.5,1,3.9c0-1.6,1.3-2.9,2.9-2.9c1.6,0,2.9,1.3,2.9,2.9C6.8,5.5,5.5,6.8,3.9,6.8z"/>
	<path class="st1" d="M5.1,3.3C5.1,3.3,5.1,3.3,5.1,3.3C5,3.3,5,3.3,5,3.4c0.4,0,0.9,0,1.3,0.1L6.2,3.6C5.8,3.5,5.4,3.5,5,3.5
		c-0.1,0-0.1,0-0.1,0c0,0,0,0.1-0.1,0.1c0,0,0.1,0,0.2,0c0.4,0,0.7,0,1,0.1L6,3.8c-0.3,0-0.6-0.1-0.9-0.1c-0.1,0-0.2,0-0.3,0
		c0,0-0.1,0.1-0.1,0.1c0.1,0,0.3,0,0.5,0c0.3,0,0.5,0,0.8,0.1L5.7,4C5.6,4,5.4,4,5.2,4C4.7,4,4.3,4.1,3.9,4.3C4.3,4.7,4.9,5,5.5,5
		h0.1L5.4,5.2C4.5,5,3.6,4.7,2.9,4.1c-0.7-0.5-1-0.6-1.5-0.9l0-0.1l0.4,0.2l0.1-0.1l1.3,0.6L3,3.8L2.3,3.5L2.3,3.6l0.3,0.2
		C2.9,3.9,3.1,4,3.3,4c0.4,0,0.8-0.3,1.1-0.8c0.2,0,0.4,0,0.6,0c0.5,0,1,0,1.5,0.1L6.4,3.4C6.1,3.3,5.5,3.3,5.1,3.3"/>
</g>
</svg>
