<?xml version="1.0" encoding="utf-8"?>
<!-- Generator: Adobe Illustrator 22.1.0, SVG Export Plug-In . SVG Version: 6.00 Build 0)  -->
<svg version="1.1" id="Layer_1" xmlns="http://www.w3.org/2000/svg" xmlns:xlink="http://www.w3.org/1999/xlink" x="0px" y="0px"
	 viewBox="0 0 7.8 9.9" style="enable-background:new 0 0 7.8 9.9;" xml:space="preserve">
<style type="text/css">
	.st0{fill:#BE1329;}
	.st1{fill:#83020C;}
</style>
<title>map-pin-orange</title>
<path class="st0" d="M3.9,0C1.7,0,0,1.7,0,3.9l0,0l0,0c0,3,3.7,6,3.9,6l0,0c0.1-0.1,3.9-3,3.9-6C7.7,1.7,6,0,3.9,0L3.9,0"/>
<path class="st1" d="M3.9,5.4C3,5.4,2.3,4.7,2.3,3.9S3,2.3,3.9,2.3S5.4,3,5.4,3.9S4.7,5.4,3.9,5.4L3.9,5.4L3.9,5.4"/>
</svg>
