<svg xmlns="http://www.w3.org/2000/svg" width="27.79mm" height="35.28mm" viewBox="0 0 78.79 100">
  <defs>
    <style>
      .a {
        fill: #eef3f9;
      }

      .b {
        fill: #07194a;
      }
    </style>
  </defs>
  <title>map-pin-lufthansa</title>
  <g>
    <path class="a" d="M39.39,0C17.17,0,0,17.17,0,39.39H0C0,69.7,37.37,100,39.39,100h0c1-1,39.4-30.3,39.4-60.61C77.78,17.17,60.61,0,39.39,0h0"/>
    <g>
      <path class="b" d="M39.39,7.36A32.18,32.18,0,1,0,71.57,39.54,32.16,32.16,0,0,0,39.39,7.36Zm0,62.42A30.24,30.24,0,1,1,69.64,39.54,30.25,30.25,0,0,1,39.39,69.78Z"/>
      <path class="b" d="M51.29,33.13a10.42,10.42,0,0,1-.65,1,72.05,72.05,0,0,1,13.43,1.21l-1.29,1.25a65.66,65.66,0,0,0-12.06-1H49.8A11.75,11.75,0,0,1,49,36.68c.4,0,1.17,0,2.22,0a69.91,69.91,0,0,1,10.72.84L60.6,38.73a63.72,63.72,0,0,0-9.31-.68c-1.09,0-2.34,0-3.47.12-.24.28-.89,1-1.09,1.21a46.79,46.79,0,0,1,5-.24,49.94,49.94,0,0,1,7.87.56L58.35,41a54.75,54.75,0,0,0-5.81-.36A22.81,22.81,0,0,0,39.8,44.1a22.68,22.68,0,0,0,16.05,6.65h.56l-2.1,2.06A68.53,68.53,0,0,1,28.63,42.16c-7.46-5-10.08-6.49-15.89-9.07l0-1.49,3.91,1.69,1.33-1,12.82,5.89-.84.68L23.35,36l-.65.53,3.43,1.89c2.9,1.61,5.08,2.34,7.13,2.34,4.44,0,8.43-3.15,11-8.71a51.88,51.88,0,0,1,6.49-.36,82.92,82.92,0,0,1,15.65,1.53L65,34.5a73.51,73.51,0,0,0-13.19-1.37Z"/>
      <path class="b" d="M51.29,33.13a10.42,10.42,0,0,1-.65,1,72.05,72.05,0,0,1,13.43,1.21l-1.29,1.25a65.66,65.66,0,0,0-12.06-1H49.8A11.75,11.75,0,0,1,49,36.68c.4,0,1.17,0,2.22,0a69.91,69.91,0,0,1,10.72.84L60.6,38.73a63.72,63.72,0,0,0-9.31-.68c-1.09,0-2.34,0-3.47.12-.24.28-.89,1-1.09,1.21a46.79,46.79,0,0,1,5-.24,49.94,49.94,0,0,1,7.87.56L58.35,41a54.75,54.75,0,0,0-5.81-.36A22.81,22.81,0,0,0,39.8,44.1a22.68,22.68,0,0,0,16.05,6.65h.56l-2.1,2.06A68.53,68.53,0,0,1,28.63,42.16c-7.46-5-10.08-6.49-15.89-9.07l0-1.49,3.91,1.69,1.33-1,12.82,5.89-.84.68L23.35,36l-.65.53,3.43,1.89c2.9,1.61,5.08,2.34,7.13,2.34,4.44,0,8.43-3.15,11-8.71a51.88,51.88,0,0,1,6.49-.36,82.92,82.92,0,0,1,15.65,1.53L65,34.5a73.51,73.51,0,0,0-13.19-1.37Z"/>
      <path class="b" d="M51.29,33.13a10.42,10.42,0,0,1-.65,1,72.05,72.05,0,0,1,13.43,1.21l-1.29,1.25a65.66,65.66,0,0,0-12.06-1H49.8A11.75,11.75,0,0,1,49,36.68c.4,0,1.17,0,2.22,0a69.91,69.91,0,0,1,10.72.84L60.6,38.73a63.72,63.72,0,0,0-9.31-.68c-1.09,0-2.34,0-3.47.12-.24.28-.89,1-1.09,1.21a46.79,46.79,0,0,1,5-.24,49.94,49.94,0,0,1,7.87.56L58.35,41a54.75,54.75,0,0,0-5.81-.36A22.81,22.81,0,0,0,39.8,44.1a22.68,22.68,0,0,0,16.05,6.65h.56l-2.1,2.06A68.53,68.53,0,0,1,28.63,42.16c-7.46-5-10.08-6.49-15.89-9.07l0-1.49,3.91,1.69,1.33-1,12.82,5.89-.84.68L23.35,36l-.65.53,3.43,1.89c2.9,1.61,5.08,2.34,7.13,2.34,4.44,0,8.43-3.15,11-8.71a51.88,51.88,0,0,1,6.49-.36,82.92,82.92,0,0,1,15.65,1.53L65,34.5a73.51,73.51,0,0,0-13.19-1.37Z"/>
    </g>
  </g>
</svg>
